<?xml version="1.0" encoding="UTF-8"?>
<svg version="1.1" xmlns="http://www.w3.org/2000/svg" width="512" height="512">
<path d="M0 0 C0.76707275 0.00054382 1.53414551 0.00108765 2.32446289 0.00164795 C15.24382077 0.04360263 27.52681587 1.04600062 40.0625 4.375 C40.87525391 4.58930664 41.68800781 4.80361328 42.52539062 5.02441406 C63.55862254 10.76302817 82.64920699 20.4537196 100.59375 32.76953125 C101.5528125 33.42308594 102.511875 34.07664063 103.5 34.75 C104.28246094 35.31460938 105.06492188 35.87921875 105.87109375 36.4609375 C108.05110004 37.64707071 108.05110004 37.64707071 110.33007812 36.65698242 C113.37249545 35.22955807 116.13150565 33.57318442 118.97265625 31.77734375 C120.12832735 31.05429859 121.28451695 30.33208164 122.44116211 29.6105957 C123.0420163 29.23488434 123.64287048 28.85917297 124.26193237 28.47207642 C142.69196991 17.00119014 160.86261707 8.4711257 182.0625 3.375 C182.75859375 3.19710938 183.4546875 3.01921875 184.171875 2.8359375 C195.17471782 0.10688594 206.35221101 0.06863325 217.625 0 C218.35954407 -0.0080365 219.09408813 -0.016073 219.85089111 -0.02435303 C258.67511674 -0.34619954 292.33459498 15.63931354 320.1875 42.1875 C325.64603131 47.82951135 330.39101926 54.07894469 335.0625 60.375 C335.70106934 61.23109863 335.70106934 61.23109863 336.35253906 62.10449219 C348.71139015 78.92760379 357.08543373 98.16828652 362.0625 118.375 C362.40023438 119.63828125 362.73796875 120.9015625 363.0859375 122.203125 C372.22129956 162.93510629 360.87285031 206.63486915 339.0625 241.3125 C331.8051507 252.60297949 323.65504965 263.07076717 315.0625 273.375 C314.28592041 274.3239917 313.50934082 275.2729834 312.70922852 276.25073242 C304.11295494 286.62157712 294.63052807 296.07819986 285.07958984 305.5637207 C282.29851454 308.32639292 279.52567165 311.09713093 276.75390625 313.86914062 C274.96661886 315.65151612 273.17887454 317.43343357 271.390625 319.21484375 C270.57273499 320.03162094 269.75484497 320.84839813 268.91217041 321.68992615 C264.63301341 325.93415047 260.28177211 330.03044154 255.70428467 333.9521637 C253.72369349 335.66862328 251.88249351 337.49000673 250.0625 339.375 C246.86220478 342.62529983 243.52025424 345.62224245 240.0625 348.59375 C237.27364467 351.07757428 234.68563017 353.74211437 232.06640625 356.40234375 C229.48003849 358.94837829 226.7471472 361.29521557 223.99609375 363.66015625 C221.49818444 365.8754738 219.18225011 368.2439817 216.84375 370.625 C214.34353815 373.08134849 211.68569484 375.33809368 209.03125 377.625 C207.13226929 379.31298286 205.34244012 381.06269734 203.5625 382.875 C200.52417583 385.96856643 197.3148468 388.79605507 194.03125 391.625 C192.13226929 393.31298286 190.34244012 395.06269734 188.5625 396.875 C185.52417583 399.96856643 182.3148468 402.79605507 179.03125 405.625 C177.13226929 407.31298286 175.34244012 409.06269734 173.5625 410.875 C170.52417583 413.96856643 167.3148468 416.79605507 164.03125 419.625 C162.13226929 421.31298286 160.34244012 423.06269734 158.5625 424.875 C155.52417583 427.96856643 152.3148468 430.79605507 149.03125 433.625 C147.13226929 435.31298286 145.34244012 437.06269734 143.5625 438.875 C140.52417583 441.96856643 137.3148468 444.79605507 134.03125 447.625 C132.13226929 449.31298286 130.34244012 451.06269734 128.5625 452.875 C125.53390624 455.95865911 122.33592533 458.77816295 119.0625 461.59765625 C115.92461898 464.38620286 112.98839677 467.36681238 110.0625 470.375 C106.13035699 468.78560574 103.73229654 466.21157498 100.8125 463.1875 C96.98187086 459.26487443 93.0606166 455.54412392 88.890625 451.984375 C86.42216031 449.81128215 84.14714637 447.47027631 81.84375 445.125 C79.97860326 443.29257513 78.04322254 441.58146865 76.0625 439.875 C72.83293633 437.09260668 69.82927347 434.16480571 66.84375 431.125 C64.97860326 429.29257513 63.04322254 427.58146865 61.0625 425.875 C57.83293633 423.09260668 54.82927347 420.16480571 51.84375 417.125 C49.97860326 415.29257513 48.04322254 413.58146865 46.0625 411.875 C42.83293633 409.09260668 39.82927347 406.16480571 36.84375 403.125 C34.97860326 401.29257513 33.04322254 399.58146865 31.0625 397.875 C27.83293633 395.09260668 24.82927347 392.16480571 21.84375 389.125 C19.97860326 387.29257513 18.04322254 385.58146865 16.0625 383.875 C12.83293633 381.09260668 9.82927347 378.16480571 6.84375 375.125 C4.97860326 373.29257513 3.04322254 371.58146865 1.0625 369.875 C-1.54397609 367.6294206 -4.02684521 365.32948488 -6.4375 362.875 C-8.82803167 360.44110268 -11.28796262 358.16144441 -13.875 355.9375 C-16.68326347 353.51882221 -19.33720593 351.01600317 -21.9375 348.375 C-24.51759215 345.75459391 -27.14853607 343.27176588 -29.9375 340.875 C-33.36532597 337.92921205 -36.54884817 334.81324653 -39.6875 331.5625 C-41.58182915 329.7207911 -43.51183292 328.0083336 -45.51586914 326.29003906 C-50.17437187 322.22396342 -54.55942261 317.91483383 -58.93359375 313.546875 C-59.76657486 312.71722229 -60.59955597 311.88756958 -61.45777893 311.03277588 C-63.20957023 309.28601955 -64.96003363 307.53793058 -66.70922852 305.78857422 C-69.3586769 303.14130965 -72.0160216 300.50215088 -74.67382812 297.86328125 C-82.88345517 289.68099306 -90.88509619 281.59145439 -97.9375 272.375 C-98.95957468 271.12977105 -99.98647454 269.88847709 -101.01953125 268.65234375 C-120.43413103 245.03211485 -136.31753504 218.44454694 -143.43359375 188.49121094 C-143.89767486 186.54225014 -144.40020262 184.60255045 -144.90625 182.6640625 C-149.33301312 162.78461703 -149.1950181 138.04052571 -143.9375 118.375 C-143.75477539 117.63314453 -143.57205078 116.89128906 -143.38378906 116.12695312 C-133.81065999 77.61436489 -108.65734779 41.35790349 -74.7578125 20.41015625 C-63.36937623 13.59743098 -51.5333612 8.1753668 -38.75 4.5625 C-38.06260742 4.36760986 -37.37521484 4.17271973 -36.66699219 3.97192383 C-24.55432213 0.75369803 -12.46921006 -0.03340328 0 0 Z M-78.1796875 62.5546875 C-102.956381 87.89289247 -116.53037365 120.4749684 -116.35693359 155.80517578 C-115.52047336 196.07938686 -93.8621667 231.0353018 -67.203125 259.8984375 C-65.34950477 261.92463617 -63.55100523 263.97923108 -61.75854492 266.05883789 C-58.16660337 270.16753817 -54.3991748 274.05838324 -50.53515625 277.91015625 C-49.85376083 278.59250839 -49.17236542 279.27486053 -48.47032166 279.97789001 C-47.04044259 281.40844437 -45.60932089 282.83775767 -44.17700195 284.26586914 C-42.00552289 286.43199074 -39.83943675 288.60340174 -37.67382812 290.77539062 C-36.27375798 292.17479987 -34.87337762 293.57389884 -33.47265625 294.97265625 C-32.83594498 295.61139175 -32.1992337 296.25012726 -31.54322815 296.90821838 C-27.70378277 300.72806342 -23.74917518 304.35918154 -19.64231873 307.8903656 C-17.64364312 309.63090406 -15.77803116 311.46873558 -13.9375 313.375 C-10.7159145 316.64702128 -7.35157855 319.66816055 -3.87109375 322.66015625 C-1.40586327 324.84649197 0.88178637 327.18120358 3.18847656 329.53222656 C4.99267063 331.30633506 6.85088669 332.96440378 8.76953125 334.61328125 C13.03498649 338.32215974 17.15020732 342.17231791 21.25 346.0625 C26.37101839 350.90242568 31.50155884 355.72964843 36.6875 360.5 C44.49043258 367.67996338 52.23220901 374.92507458 59.97851562 382.16601562 C67.01172204 388.73944144 74.05296517 395.3032184 81.13574219 401.82324219 C84.08902442 404.54446787 87.03073393 407.27736062 89.9609375 410.0234375 C90.62287109 410.64347656 91.28480469 411.26351563 91.96679688 411.90234375 C93.23754833 413.09375195 94.50716663 414.28637049 95.77539062 415.48046875 C99.77510658 419.22992805 103.87072438 422.84163519 108.0625 426.375 C111.06766708 425.00803319 113.34462319 423.42965728 115.80078125 421.23046875 C116.49768066 420.6070459 117.19458008 419.98362305 117.91259766 419.34130859 C121.39237246 416.15869375 124.82924175 412.93336473 128.25 409.6875 C133.37101839 404.84757432 138.50155884 400.02035157 143.6875 395.25 C148.28728383 391.01745293 152.86938167 386.76671671 157.4375 382.5 C158.06269531 381.91605469 158.68789063 381.33210938 159.33203125 380.73046875 C161.24244373 378.94558645 163.15253431 377.16036039 165.0625 375.375 C172.73845514 368.19982073 180.42090122 361.03268087 188.14892578 353.91357422 C192.94543911 349.49153708 197.71287613 345.03873938 202.47875977 340.58374023 C206.47203152 336.85316348 210.47960129 333.13880955 214.5 329.4375 C220.00870727 324.363311 225.48271706 319.25289956 230.93847656 314.12182617 C234.15082021 311.10087392 237.36828193 308.08710518 240.6171875 305.10546875 C249.28606092 297.1198621 257.69386074 288.87535138 266.04946899 280.56427002 C267.33264867 279.28849851 268.617417 278.01432256 269.90390015 276.74188232 C277.4479153 269.27266531 284.4864314 261.72103778 291.0625 253.375 C291.94837166 252.3231861 292.84020925 251.27631608 293.7421875 250.23828125 C321.65674697 217.80374863 336.15862327 181.36054216 334.0625 138.375 C331.24407671 107.50582106 312.98824864 76.01169896 289.359375 56.18359375 C275.40148974 45.192946 260.45157935 37.36205338 243.0625 33.375 C242.36608398 33.19984863 241.66966797 33.02469727 240.95214844 32.84423828 C233.38761437 31.09725792 225.92663237 30.98910648 218.1875 31 C217.50441772 31.00087616 216.82133545 31.00175232 216.11755371 31.00265503 C181.82576812 31.14728065 154.3973972 45.33420701 126.54785156 64.06640625 C123.97965242 65.78946069 121.39717984 67.48930127 118.8125 69.1875 C118.01408691 69.7338208 117.21567383 70.2801416 116.39306641 70.84301758 C115.63944824 71.33439209 114.88583008 71.8257666 114.109375 72.33203125 C113.44776367 72.77522705 112.78615234 73.21842285 112.10449219 73.67504883 C110.0625 74.375 110.0625 74.375 107.63964844 73.70239258 C104.92979793 72.30665014 102.35777603 70.80923371 99.78125 69.1796875 C98.28078125 68.2352478 98.28078125 68.2352478 96.75 67.27172852 C95.698125 66.60455811 94.64625 65.9373877 93.5625 65.25 C91.38547289 63.88142098 89.2083901 62.51293053 87.03125 61.14453125 C83.73510648 59.06552758 80.4424877 56.98133336 77.15625 54.88671875 C27.49933194 23.60035245 -33.1526226 20.60639627 -78.1796875 62.5546875 Z " fill="#000000" transform="translate(146.9375,20.625)"/>
<path d="M0 0 C1.49853516 0.72703125 1.49853516 0.72703125 3.02734375 1.46875 C33.68736826 17.30463066 52.06145839 44.41788212 63.1015625 76.16796875 C71.97410118 105.78790849 67.36443045 139.28901385 53.0390625 166.30859375 C37.70763483 194.39698076 12.91851048 216.47228458 -17.9609375 225.90234375 C-19.30564157 226.27424782 -20.65208759 226.63989751 -22 227 C-23.0832959 227.29414795 -23.0832959 227.29414795 -24.18847656 227.59423828 C-55.07794501 235.65608632 -88.53420678 231.20054123 -116.24609375 215.31640625 C-143.69455723 198.79241678 -164.54366706 173.09229641 -173 142 C-180.78433555 109.76192265 -177.50396355 77.04793454 -161.27734375 47.90625 C-157.3521077 41.54003572 -152.82684543 35.70363196 -148 30 C-147.31164062 29.17628906 -146.62328125 28.35257813 -145.9140625 27.50390625 C-125.30332678 3.65646654 -95.02613223 -10.41696083 -63.79296875 -12.83984375 C-41.23249295 -14.13352138 -20.23512558 -9.85401235 0 0 Z M-123.98046875 49.25390625 C-133.79738792 60.86483107 -140.34257708 74.25481074 -144 89 C-144.22429687 89.86367187 -144.44859375 90.72734375 -144.6796875 91.6171875 C-149.70333285 114.25800012 -143.98325661 138.20595175 -132.10546875 157.7421875 C-117.97563702 179.60541508 -97.09530476 193.1056391 -72 199 C-47.34827279 203.43844171 -23.85583326 197.33486848 -3 184 C17.12661502 169.66361447 30.40148186 148.61759068 35.25 124.375 C38.82062929 99.41305526 33.14614657 75.22777628 18.234375 54.88671875 C17.49703125 53.93410156 16.7596875 52.98148438 16 52 C15.38640625 51.20207031 14.7728125 50.40414062 14.140625 49.58203125 C-0.74283675 31.61374943 -22.71426366 21.11265592 -45.61328125 18.31640625 C-75.27053429 15.54565943 -104.13016433 26.96596073 -123.98046875 49.25390625 Z " fill="#000000" transform="translate(311,134)"/>
<path d="M0 0 C10.23 0 20.46 0 31 0 C31.495 9.405 31.495 9.405 32 19 C37.36735648 20.84577348 37.36735648 20.84577348 42.73901367 22.67895508 C46.79298218 24.09131472 50.40219961 25.59906307 54 28 C52.75256064 30.5221286 51.50212931 33.04270078 50.25 35.5625 C49.90195312 36.26697266 49.55390625 36.97144531 49.1953125 37.69726562 C46.94162392 42.22551026 44.54907588 46.6309758 42 51 C36.79370188 49.32932225 31.8262249 47.27409388 26.8046875 45.12109375 C21.6429063 43.05781909 17.53534419 42.73641218 12 43 C11.01 43.66 10.02 44.32 9 45 C9.20501077 46.94833303 9.20501077 46.94833303 10 49 C11.69330436 50.2262298 11.69330436 50.2262298 13.875 51.01171875 C14.6896875 51.34220215 15.504375 51.67268555 16.34375 52.01318359 C21.79738215 54.03924804 27.29800045 55.92987169 32.828125 57.73632812 C41.65279247 60.79907933 49.56065194 65.47645173 54 74 C57.16010493 82.21627281 57.00596903 91.72269398 54 100 C50.63318225 106.8705908 45.95675398 111.73567698 39 115 C35.04 115.99 35.04 115.99 31 117 C31 123.27 31 129.54 31 136 C20.77 136 10.54 136 0 136 C0 129.4 0 122.8 0 116 C-3.465 115.505 -3.465 115.505 -7 115 C-9.23172552 114.27690012 -11.4422026 113.48457416 -13.625 112.625 C-14.71039063 112.20476562 -15.79578125 111.78453125 -16.9140625 111.3515625 C-19.7813643 110.0957569 -22.36163655 108.67717528 -25 107 C-23.33913088 101.43335076 -20.88928264 96.34213647 -18.375 91.125 C-17.95476562 90.24585938 -17.53453125 89.36671875 -17.1015625 88.4609375 C-16.0708308 86.30577122 -15.03690574 84.15220078 -14 82 C-10.53303015 83.35068664 -7.17379793 84.84373835 -3.8125 86.4375 C5.15896046 90.49687568 13.04657795 92.89857282 23 92 C23.66 91.67 24.32 91.34 25 91 C24.54922363 87.96351862 24.54922363 87.96351862 22.46655273 85.83764648 C17.4262197 83.52512595 12.35889652 81.69676501 7.0625 80.0625 C0.6176419 77.99157242 -5.35083756 75.81841535 -11 72 C-11.928125 71.38125 -12.85625 70.7625 -13.8125 70.125 C-19.05236225 65.0348481 -21.12284753 59.13221087 -21.25 51.9375 C-21.12284843 42.40113236 -18.94528789 33.82605548 -12 27 C-8.52510691 24.32070533 -4.92600351 21.96300175 -1 20 C-0.67 13.4 -0.34 6.8 0 0 Z " fill="#000000" transform="translate(240,176)"/>
</svg>
