<?xml version="1.0" encoding="UTF-8"?>
<svg version="1.1" xmlns="http://www.w3.org/2000/svg" width="512" height="512">
<path d="M0 0 C0.65952667 0.00182281 1.31905334 0.00364563 1.99856567 0.00552368 C12.12362994 0.05259276 21.48455355 0.57639541 31.25 3.3125 C33.04050781 3.78816406 33.04050781 3.78816406 34.8671875 4.2734375 C64.08948859 12.98452514 89.52793611 33.56374996 104.4296875 60.1171875 C119.58270588 88.34201722 123.73539688 121.00752478 114.99609375 151.9453125 C111.55127447 163.25367307 106.82461834 174.45057249 100.25 184.3125 C101.34358826 184.30805878 102.43717651 184.30361755 103.56390381 184.29904175 C113.86394639 184.2585193 124.16397282 184.22852695 134.464077 184.20887566 C139.75961374 184.19843316 145.0550862 184.18426538 150.35058594 184.16162109 C155.45988854 184.13990944 160.56912926 184.12793488 165.67847443 184.12274551 C167.62893905 184.11904675 169.57940024 184.11182411 171.52983856 184.10103989 C174.25922498 184.08654733 176.98835481 184.08452113 179.71777344 184.08544922 C180.52625732 184.07825867 181.33474121 184.07106812 182.16772461 184.06365967 C189.38774428 184.09027051 189.38774428 184.09027051 192.25 186.3125 C194.79107711 189.75099488 194.55242956 193.55516924 194.55639648 197.66381836 C194.56472 198.39764236 194.57304352 199.13146637 194.58161926 199.88752747 C194.60568124 202.30918711 194.61448586 204.73057731 194.62109375 207.15234375 C194.63006179 208.83858826 194.63918367 210.52483195 194.64845276 212.21107483 C194.66493411 215.74417046 194.67264151 219.27717141 194.67553711 222.81030273 C194.68092529 227.33444384 194.71862617 231.85769392 194.76428127 236.38158321 C194.79404059 239.86376692 194.80126038 243.34573554 194.80226326 246.82803535 C194.80646653 248.49580537 194.81890523 250.16357597 194.83978081 251.83122063 C194.86667857 254.16540806 194.86187698 256.49752316 194.84936523 258.83178711 C194.86419952 259.51818268 194.87903381 260.20457825 194.89431763 260.91177368 C194.83754434 264.63652891 194.29112032 266.25875635 192.00282288 269.24952698 C189.13431473 271.39919486 188.10047963 271.91965917 184.60546875 271.80078125 C183.76435547 271.78466797 182.92324219 271.76855469 182.05664062 271.75195312 C181.19232422 271.71005859 180.32800781 271.66816406 179.4375 271.625 C178.55384766 271.60244141 177.67019531 271.57988281 176.75976562 271.55664062 C174.5891109 271.49797428 172.4193331 271.40829979 170.25 271.3125 C170.26571045 272.61920654 170.2814209 273.92591309 170.29760742 275.2722168 C170.3519672 280.12697164 170.38637226 284.98169964 170.41479492 289.83666992 C170.42986772 291.93665086 170.45032941 294.0366004 170.47631836 296.13647461 C170.51276754 299.15746824 170.52974159 302.17804511 170.54296875 305.19921875 C170.55845261 306.13585861 170.57393646 307.07249847 170.58988953 308.03752136 C170.5911485 312.92987073 170.52295624 316.38007863 167.25 320.3125 C164.15826248 321.85836876 161.65570448 321.60609521 158.25 321.3125 C156.93 319.9925 155.61 318.6725 154.25 317.3125 C154.25 302.1325 154.25 286.9525 154.25 271.3125 C52.61 271.3125 -49.03 271.3125 -153.75 271.3125 C-153.75 286.4925 -153.75 301.6725 -153.75 317.3125 C-157.75 321.3125 -157.75 321.3125 -161.25 321.75 C-164.84920025 321.30009997 -166.26770265 320.89027032 -168.75 318.3125 C-169.68512434 315.50712697 -169.87182907 313.83084636 -169.86352539 310.93286133 C-169.86344986 310.05217484 -169.86337433 309.17148834 -169.86329651 308.26411438 C-169.85555458 306.84367073 -169.85555458 306.84367073 -169.84765625 305.39453125 C-169.8462413 304.42215012 -169.84482635 303.44976898 -169.84336853 302.44792175 C-169.83776817 299.34024996 -169.82521562 296.23265004 -169.8125 293.125 C-169.80748505 291.01888125 -169.80292213 288.91276137 -169.79882812 286.80664062 C-169.78779862 281.64189936 -169.77053375 276.47721187 -169.75 271.3125 C-171.06355469 271.37050781 -172.37710938 271.42851562 -173.73046875 271.48828125 C-175.46611023 271.53519048 -177.20179023 271.58068939 -178.9375 271.625 C-179.80181641 271.66689453 -180.66613281 271.70878906 -181.55664062 271.75195312 C-182.39775391 271.76806641 -183.23886719 271.78417969 -184.10546875 271.80078125 C-185.26018677 271.84005737 -185.26018677 271.84005737 -186.43823242 271.88012695 C-190.06279195 270.9901596 -191.51019652 269.23988974 -193.75 266.3125 C-194.23133042 263.60364693 -194.40766367 261.52930671 -194.34936523 258.83178711 C-194.35330795 258.09621078 -194.35725067 257.36063446 -194.36131287 256.60276794 C-194.36800398 254.18109131 -194.33890576 251.76131736 -194.30859375 249.33984375 C-194.3043415 247.65263738 -194.30201483 245.96542516 -194.30152893 244.2782135 C-194.29536974 240.74664697 -194.27269935 237.21571625 -194.23706055 233.68432617 C-194.19175381 229.15925218 -194.17703235 224.6347531 -194.17332363 220.10947323 C-194.16889364 216.62730753 -194.15358788 213.14526227 -194.1344471 209.66314888 C-194.12557319 207.994604 -194.11883916 206.32604632 -194.11428642 204.65748405 C-194.10523601 202.3260428 -194.08283964 199.9951191 -194.05639648 197.66381836 C-194.05573181 196.97539856 -194.05506714 196.28697876 -194.05438232 195.57769775 C-193.99882736 192.02585384 -193.89891923 189.22034084 -191.75 186.3125 C-188.10188898 183.48013956 -183.61878978 184.04630715 -179.21777344 184.08544922 C-178.35887512 184.08515717 -177.49997681 184.08486511 -176.61505127 184.08456421 C-173.77972263 184.08595612 -170.94465767 184.10151086 -168.109375 184.1171875 C-166.14211165 184.12091812 -164.17484644 184.12376486 -162.20758057 184.12576294 C-157.03229636 184.13339552 -151.85712458 184.15304086 -146.68188477 184.1751709 C-141.39991782 184.19563736 -136.11793268 184.20476637 -130.8359375 184.21484375 C-120.47390896 184.23628705 -110.11196383 184.27041854 -99.75 184.3125 C-100.30189499 183.36024536 -100.85378998 182.40799072 -101.42240906 181.42687988 C-102.15242833 180.16031569 -102.88230461 178.89366906 -103.61206055 177.62695312 C-103.97513054 177.00137512 -104.33820053 176.37579712 -104.71227264 175.73126221 C-107.48411299 170.91005286 -109.7367741 166.07199944 -111.5625 160.8125 C-111.99103271 159.61403442 -111.99103271 159.61403442 -112.42822266 158.39135742 C-123.02852434 127.90406076 -120.53908432 94.98789613 -106.87988281 65.9230957 C-101.18763609 54.32147817 -93.59563583 44.69377122 -84.75 35.3125 C-84.08742188 34.57386719 -83.42484375 33.83523437 -82.7421875 33.07421875 C-61.68615249 10.5370558 -30.21159468 -0.13253227 0 0 Z M-71.28198242 44.42651367 C-77.16889107 50.25103622 -82.53492553 56.14386979 -86.75 63.3125 C-87.10400879 63.90869141 -87.45801758 64.50488281 -87.82275391 65.11914062 C-102.50272283 90.18640218 -106.48459592 118.10500269 -99.24609375 146.2734375 C-95.49144506 159.90142163 -88.86423527 174.19826473 -78.75 184.3125 C-76.60441173 184.40025605 -74.45595579 184.41945219 -72.30859375 184.41015625 C-71.00341797 184.40693359 -69.69824219 184.40371094 -68.35351562 184.40039062 C-66.9648431 184.39203401 -65.57617123 184.38356905 -64.1875 184.375 C-62.79492344 184.36998666 -61.40234519 184.36542347 -60.00976562 184.36132812 C-56.5898013 184.34949434 -53.16992156 184.3330088 -49.75 184.3125 C-53.10130428 180.94217495 -53.10130428 180.94217495 -56.5234375 177.64453125 C-71.20756143 163.71252098 -79.89885382 143.54975026 -80.953125 123.4375 C-81.3818197 100.817711 -74.86114872 79.36574101 -59.14331055 62.61230469 C-43.86789331 47.0046452 -24.87715334 38.43820785 -3.16650391 37.84155273 C19.84496574 37.64587138 39.10495012 43.52633265 56.25 59.3125 C56.88035156 59.85132813 57.51070312 60.39015625 58.16015625 60.9453125 C72.51498084 73.95948149 80.45953134 95.23279012 81.453125 114.1875 C81.92747959 139.05208694 73.87647615 159.69834231 56.80078125 177.68359375 C54.63661601 179.91404276 52.45037655 182.11796077 50.25 184.3125 C54.26970396 184.48645523 58.28793237 184.61297689 62.31054688 184.69702148 C63.67649521 184.73207479 65.04218366 184.77973632 66.40722656 184.84057617 C74.21948186 185.42314653 74.21948186 185.42314653 81.37792969 182.95166016 C82.96070318 181.15622327 84.10399488 179.40999995 85.25 177.3125 C85.95125 176.2503125 86.6525 175.188125 87.375 174.09375 C101.87534577 148.7181449 107.38566382 120.99620165 100.25 92.3125 C95.79995972 76.7427727 88.20396462 62.24608748 77.25 50.3125 C75.98349609 48.92417969 75.98349609 48.92417969 74.69140625 47.5078125 C55.34813668 27.23808735 29.63998129 16.53793131 1.86230469 15.35546875 C-25.24243975 14.9096337 -51.75117201 25.71600242 -71.28198242 44.42651367 Z M-46.296875 71.76953125 C-58.89564124 84.82971727 -65.61488165 100.45391095 -66.1875 118.625 C-65.73415033 137.74452946 -58.05050289 153.64672833 -44.81640625 167.30859375 C-29.78277847 181.34206334 -11.94281164 185.03916086 7.86083984 184.43994141 C24.38786616 183.5583649 39.49380373 173.73281977 50.5 161.9375 C62.15869295 148.14411679 67.28581698 131.40761017 66.42919922 113.39306641 C64.82033069 94.71353295 55.19816381 78.63628951 41.21484375 66.484375 C13.94698543 46.50950119 -21.58799031 48.57581402 -46.296875 71.76953125 Z M-177.75 200.3125 C-177.75 218.4625 -177.75 236.6125 -177.75 255.3125 C-60.27 255.3125 57.21 255.3125 178.25 255.3125 C178.25 237.1625 178.25 219.0125 178.25 200.3125 C60.77 200.3125 -56.71 200.3125 -177.75 200.3125 Z " fill="#000000" transform="translate(255.75,-0.3125)"/>
<path d="M0 0 C2.10546875 0.42578125 2.10546875 0.42578125 6.10546875 4.42578125 C6.10546875 54.58578125 6.10546875 104.74578125 6.10546875 156.42578125 C107.74546875 156.42578125 209.38546875 156.42578125 314.10546875 156.42578125 C314.10546875 106.26578125 314.10546875 56.10578125 314.10546875 4.42578125 C318.10546875 0.42578125 318.10546875 0.42578125 320.140625 -0.0703125 C325.60633131 0.08765589 325.60633131 0.08765589 328.04296875 1.73828125 C330.32906613 5.36914179 330.2352358 8.61468602 330.24591064 12.78915405 C330.25036733 13.76163446 330.25036733 13.76163446 330.25491405 14.75376093 C330.26359815 16.93009193 330.26510904 19.10636789 330.26660156 21.28271484 C330.2712299 22.8415285 330.27625458 24.40034102 330.28164673 25.95915222 C330.29477025 30.19677802 330.30121546 34.43438798 330.30565739 38.67203093 C330.30858787 41.31890927 330.31269261 43.96578329 330.31716156 46.61265945 C330.33083566 54.89240447 330.34050304 63.17213959 330.34436345 71.45189512 C330.34884572 81.01308297 330.36640179 90.57412797 330.39536405 100.13527238 C330.41696942 107.52388788 330.4270671 114.91246315 330.42840457 122.30110991 C330.42945332 126.71502079 330.43537601 131.12879737 330.45322418 135.54267502 C330.46968537 139.69428603 330.47186995 143.84566149 330.46308517 147.99729347 C330.46231378 149.52068143 330.46667104 151.04408196 330.47654343 152.56743813 C330.48923611 154.64805365 330.48340165 156.72783151 330.47296143 158.80844116 C330.47442799 159.97245642 330.47589455 161.13647167 330.47740555 162.33576012 C330.0280272 166.06915945 328.78350066 168.74774934 326.10546875 171.42578125 C324.3412188 171.52589388 322.57292058 171.55502064 320.80583382 171.55720901 C319.64920553 171.56105016 318.49257725 171.5648913 317.30089962 171.56884885 C316.01406399 171.56798237 314.72722836 171.56711588 313.40139771 171.56622314 C312.03323815 171.56880459 310.66507935 171.57181713 309.29692161 171.57522655 C305.51964653 171.58332575 301.74239042 171.58508773 297.96510768 171.58582401 C293.89822167 171.58766951 289.83134562 171.59521426 285.76446533 171.60195923 C276.86378189 171.61556369 267.96310294 171.62157053 259.06241083 171.62596989 C253.50926651 171.62872869 247.95612394 171.63296537 242.4029808 171.63747406 C227.04082155 171.64966939 211.6786637 171.65996824 196.31649971 171.66334915 C195.33254258 171.66356872 194.34858545 171.66378828 193.33481144 171.6640145 C191.85525906 171.66434192 191.85525906 171.66434192 190.34581673 171.66467595 C188.34691818 171.66511942 186.34801964 171.66556599 184.34912109 171.66601562 C183.35758942 171.66623705 182.36605775 171.66645848 181.34447967 171.66668662 C165.27076424 171.67063634 149.1970941 171.68809448 133.12339617 171.71137515 C116.6375973 171.7350608 100.15182118 171.74754973 83.66600502 171.74871707 C74.40302496 171.74963539 65.1401039 171.75542712 55.87714005 171.77353668 C47.99076799 171.78890013 40.10447316 171.79408045 32.218089 171.78579858 C28.19142236 171.7818787 24.16491141 171.78288638 20.1382637 171.79685593 C16.45571347 171.80951532 12.77343719 171.80846823 9.09088777 171.79626521 C7.11975595 171.79335692 5.14861975 171.80530404 3.17752469 171.81768727 C2.01568091 171.81109743 0.85383713 171.80450758 -0.34321404 171.79771805 C-1.35007 171.79831514 -2.35692596 171.79891222 -3.39429271 171.79952741 C-5.89453125 171.42578125 -5.89453125 171.42578125 -7.67898858 170.0900352 C-10.2337338 166.59221903 -10.02429804 163.23697767 -10.03497314 159.06240845 C-10.03794427 158.41408818 -10.04091539 157.76576791 -10.04397655 157.09780157 C-10.05266065 154.92147057 -10.05417154 152.74519461 -10.05566406 150.56884766 C-10.0602924 149.010034 -10.06531708 147.45122148 -10.07070923 145.89241028 C-10.08383275 141.65478448 -10.09027796 137.41717452 -10.09471989 133.17953157 C-10.09765037 130.53265323 -10.10175511 127.88577921 -10.10622406 125.23890305 C-10.11989816 116.95915803 -10.12956554 108.67942291 -10.13342595 100.39966738 C-10.13790822 90.83847953 -10.15546429 81.27743453 -10.18442655 71.71629012 C-10.20603192 64.32767462 -10.2161296 56.93909935 -10.21746707 49.55045259 C-10.21851582 45.13654171 -10.22443851 40.72276513 -10.24228668 36.30888748 C-10.25874787 32.15727647 -10.26093245 28.00590101 -10.25214767 23.85426903 C-10.25137628 22.33088107 -10.25573354 20.80748054 -10.26560593 19.28412437 C-10.27829861 17.20350885 -10.27246415 15.12373099 -10.26202393 13.04312134 C-10.26349049 11.87910608 -10.26495705 10.71509083 -10.26646805 9.51580238 C-9.40183813 2.33252627 -6.74435231 0.3669535 0 0 Z " fill="#000000" transform="translate(95.89453125,340.57421875)"/>
<path d="M0 0 C3.14818401 2.87095586 6.11582203 5.86502395 9 9 C12.04033538 7.65751425 13.91577918 6.2145579 16.125 3.75 C25.40618238 -5.70815408 37.83751466 -10.3238922 51 -10.5 C62.44557544 -10.34671715 72.00021844 -6.98353722 81 0 C82.03125 0.7425 83.0625 1.485 84.125 2.25 C91.19032926 9.00814104 95.23480892 16.69349667 98 26 C98.28810547 26.91845703 98.28810547 26.91845703 98.58203125 27.85546875 C101.49446039 42.79867997 97.31612895 56.5853443 89 69 C86.67984684 71.8110302 84.15839222 74.3615096 81.55761719 76.91235352 C80.83818939 77.63397171 80.1187616 78.3555899 79.37753296 79.09907532 C77.02680736 81.45208929 74.66221157 83.7905881 72.296875 86.12890625 C70.65034045 87.77051157 69.0046214 89.41293521 67.35968018 91.05613708 C63.92612911 94.48207895 60.48624992 97.90148173 57.04101562 101.31567383 C52.61819629 105.69871703 48.2063987 110.09264572 43.79859543 114.49078465 C39.59322161 118.68621001 35.38289567 122.87664988 31.171875 127.06640625 C30.36690331 127.8679822 29.56193161 128.66955814 28.73256683 129.49542427 C26.46602524 131.75043535 24.19603819 134.00191314 21.92480469 136.25219727 C21.24946686 136.92484619 20.57412903 137.59749512 19.87832642 138.29052734 C19.26160065 138.90009781 18.64487488 139.50966827 18.00946045 140.13771057 C17.4733955 140.66950204 16.93733055 141.20129351 16.38502121 141.74919987 C14.41215179 143.53088041 13.00168764 143.99967854 10.375 144.5 C6.66377379 143.95018871 5.91209492 143.33769214 3.22901917 140.89665222 C2.52556932 140.25863867 1.82211948 139.62062511 1.09735298 138.96327782 C-1.99324969 136.07024469 -5.0351748 133.13622733 -8.03930664 130.15356445 C-8.6924736 129.50857498 -9.34564056 128.86358551 -10.01860046 128.1990509 C-12.15209833 126.09011134 -14.28166634 123.97727456 -16.41015625 121.86328125 C-17.14429686 121.13446432 -17.87843746 120.40564739 -18.63482475 119.6547451 C-22.51700095 115.79916675 -26.39558082 111.94000749 -30.27172852 108.07836914 C-33.46044012 104.90300249 -36.65626136 101.73506561 -39.85864258 98.57348633 C-43.75002533 94.73165593 -47.62876853 90.87747632 -51.49899101 87.01433372 C-52.96539249 85.55460113 -54.43600998 84.09908993 -55.91108894 82.6481266 C-69.24574585 69.51921895 -78.74504586 57.60269027 -79.4375 38.0625 C-79.11986796 24.98183514 -74.05398944 12.47510523 -65 3 C-46.40711944 -13.25834847 -20.00699357 -15.15381196 0 0 Z M-54 15 C-60.45688764 22.8122249 -63.67395466 31.07656352 -63.34765625 41.234375 C-61.92721957 52.53402856 -54.44397403 60.88377146 -46.62744141 68.59960938 C-45.7190451 69.50844376 -45.7190451 69.50844376 -44.79229736 70.43563843 C-42.81676239 72.40979535 -40.83426998 74.37679912 -38.8515625 76.34375 C-37.46964459 77.72193236 -36.08817158 79.10056096 -34.7071228 80.47961426 C-31.09155667 84.0875867 -27.4700226 87.68950929 -23.84716797 91.29016113 C-20.1431523 94.97362606 -16.44487398 98.66284172 -12.74609375 102.3515625 C-5.50296669 109.57331495 1.74648477 116.78868252 9 124 C13.23444242 122.34625779 16.0964768 119.2062823 19.24975586 116.05664062 C20.1749276 115.14395416 20.1749276 115.14395416 21.11878967 114.21282959 C23.15629158 112.19942121 25.18605609 110.17843669 27.21484375 108.15625 C28.6319699 106.74809389 30.04917174 105.34001396 31.46644592 103.93200684 C34.43831883 100.97662701 37.40576549 98.01687742 40.37084961 95.0546875 C44.1562089 91.27469809 47.95742572 87.51110368 51.76290035 83.75138092 C54.69778784 80.84636375 57.62123208 77.93003085 60.54171944 75.01054382 C61.93735605 73.6190932 63.33708437 72.23173332 64.7410717 70.84870911 C74.41499614 61.30775282 82.95320326 52.70904884 83.3125 38.375 C83.21036149 29.04634955 79.66520538 20.60848022 73 14 C63.81476767 7.2681522 55.33369486 4.9696641 44 6 C34.444947 8.04849338 28.09498935 14.61634746 21.6171875 21.55078125 C15.79923509 27.7335883 15.79923509 27.7335883 11.25 29.25 C4.43495354 28.72576566 0.73351849 23.81697826 -3.6875 19.125 C-11.25848775 11.30061512 -18.84660675 5.9414952 -30.0625 5.6875 C-39.03988856 5.76738777 -47.44298264 8.68404945 -54 15 Z " fill="#000000" transform="translate(246,325)"/>
<path d="M0 0 C4.2173448 0.8786135 5.57388349 2.05718161 8 5.625 C8.4072392 9.00147691 8.29556031 12.2424764 8 15.625 C9.02480469 15.56699219 10.04960937 15.50898437 11.10546875 15.44921875 C12.46610011 15.40230043 13.82678096 15.35680248 15.1875 15.3125 C16.19780273 15.2496582 16.19780273 15.2496582 17.22851562 15.18554688 C21.15540568 15.08976907 22.81993391 15.4849486 25.953125 17.921875 C28 20.625 28 20.625 28.5625 24.1875 C27.89931771 28.24028068 27.23421713 29.18423013 24 31.625 C20.76367188 32.10742188 20.76367188 32.10742188 16.96875 32.09375 C16.29581909 32.10079956 15.62288818 32.10784912 14.92956543 32.1151123 C12.0617274 32.14454394 9.19457363 32.12796493 6.32666016 32.11572266 C4.22777843 32.11334027 2.12999523 32.13426374 0.03125 32.15625 C-1.22107422 32.15173828 -2.47339844 32.14722656 -3.76367188 32.14257812 C-7.06126231 32.37664796 -7.06126231 32.37664796 -9.44726562 34.42382812 C-11.36967593 36.67879836 -11.36967593 36.67879836 -10.875 40.3125 C-10.58625 41.405625 -10.2975 42.49875 -10 43.625 C-7.0598437 45.09507815 -4.27445466 44.86136381 -1 45 C7.82743048 45.51113942 15.92197974 46.48432802 22.52734375 52.83984375 C27.23644767 58.54822702 28.69617694 64.60027381 28.37890625 71.91796875 C27.37219616 79.11023777 24.41594468 83.93864413 18.78125 88.43359375 C15.03167058 90.94153612 12.57692884 91.87927382 8 91.625 C8.05800781 92.36105469 8.11601562 93.09710938 8.17578125 93.85546875 C8.5435454 101.8096819 8.5435454 101.8096819 5.875 105.8125 C2.45015775 107.97163968 0.96628159 108.45130866 -3 107.625 C-5.875 105.75 -5.875 105.75 -8 102.625 C-8.4072392 99.24852309 -8.29556031 96.0075236 -8 92.625 C-9.42892578 92.67720703 -9.42892578 92.67720703 -10.88671875 92.73046875 C-12.14097656 92.75753906 -13.39523438 92.78460938 -14.6875 92.8125 C-16.54955078 92.86470703 -16.54955078 92.86470703 -18.44921875 92.91796875 C-22.21666932 92.60712299 -24.02794917 91.9022857 -27 89.625 C-28.54586876 86.53326248 -28.29359521 84.03070448 -28 80.625 C-25.79520655 77.59138254 -24.58964458 76.72141238 -20.85546875 76.11083984 C-19.64503906 76.10262207 -18.43460938 76.0944043 -17.1875 76.0859375 C-16.53676514 76.07414459 -15.88603027 76.06235168 -15.21557617 76.05020142 C-13.14347271 76.01500995 -11.07237753 76.00578069 -9 76 C-6.92792606 75.98362378 -4.85629924 75.96151308 -2.78442383 75.92837524 C-0.90460817 75.89983589 0.97545926 75.88963099 2.85546875 75.88037109 C5.86348973 75.63608616 7.57951547 75.4005528 10 73.625 C11.08333333 70.20833333 11.08333333 70.20833333 11 66.625 C9.49597949 64.47639927 8.32895015 63.78947508 6 62.625 C2.27535975 62.42467074 -1.44301882 62.27951248 -5.171875 62.1953125 C-12.33320122 61.91262857 -17.84699135 59.77800865 -23 54.625 C-27.57942749 47.88166722 -29.12060492 41.70580662 -28 33.625 C-26.3296745 28.05724832 -23.48082385 23.35748007 -19 19.625 C-15.7562691 17.97646711 -12.46445385 16.72732623 -9 15.625 C-8.97873047 14.62919922 -8.97873047 14.62919922 -8.95703125 13.61328125 C-8.71063479 9.05161708 -8.48202905 6.31361293 -5.8125 2.5 C-3 0.625 -3 0.625 0 0 Z " fill="#000000" transform="translate(256,64.375)"/>
</svg>
