<?xml version="1.0" encoding="UTF-8"?>
<svg version="1.1" xmlns="http://www.w3.org/2000/svg" width="512" height="512">
<path d="M0 0 C1.30119781 0.00007553 2.60239563 0.00015106 3.94302368 0.00022888 C5.36875445 0.00533592 6.79448484 0.01055192 8.22021484 0.01586914 C9.67467195 0.01773392 11.12912969 0.01915754 12.58358765 0.02015686 C16.4140801 0.02397734 20.24453472 0.03380363 24.07501221 0.04486084 C27.98278288 0.05508504 31.89055966 0.05965665 35.79833984 0.06469727 C43.46762794 0.07542631 51.13688484 0.09249711 58.80615234 0.11352539 C60.41357825 4.389171 62.01421611 8.66567289 63.56787109 12.96118164 C69.50944375 29.16336351 76.69375587 42.98380059 86.68115234 57.04321289 C88.80615234 60.11352539 88.80615234 60.11352539 88.80615234 61.11352539 C87.79294922 61.1509082 86.77974609 61.18829102 85.73583984 61.22680664 C84.38424296 61.29250927 83.03268205 61.3589551 81.68115234 61.42602539 C80.68341797 61.45986328 80.68341797 61.45986328 79.66552734 61.49438477 C75.04228345 61.74367733 71.71836438 62.63176974 67.80615234 65.11352539 C64.82938189 68.61880862 63.44418993 72.64970433 63.74365234 77.23852539 C64.6059436 81.66321182 66.56873339 84.02326184 69.80615234 87.11352539 C73.20453644 88.76195966 75.92366591 89.36406094 79.68379116 89.36800098 C80.6444966 89.37383318 81.60520203 89.37966537 82.59501976 89.3856743 C84.16621412 89.38000531 84.16621412 89.38000531 85.76914978 89.3742218 C86.88808186 89.37804735 88.00701393 89.3818729 89.15985304 89.38581437 C92.91691893 89.39615011 96.67383217 89.39215107 100.4309082 89.38818359 C103.12138884 89.39252973 105.8118582 89.39764791 108.50233459 89.40367126 C115.0562889 89.41642263 121.61020224 89.41821143 128.16416686 89.415871 C133.49104165 89.41408823 138.817904 89.41583659 144.1447773 89.42009544 C144.90281649 89.42069063 145.66085568 89.42128582 146.44186576 89.42189905 C147.98180171 89.42311079 149.52173765 89.42432493 151.06167359 89.42554142 C165.50411256 89.43641857 179.94652819 89.4342536 194.38896848 89.42815658 C207.60220671 89.4229868 220.81537125 89.43424415 234.0285949 89.4532548 C247.59571804 89.47262501 261.16280628 89.48089066 274.72994334 89.47713155 C282.34695871 89.47521832 289.96391135 89.47771892 297.58091545 89.49184608 C304.06505459 89.50375043 310.54909235 89.50517543 317.03323286 89.49305592 C320.34134769 89.48716061 323.64923839 89.48770839 326.95734787 89.49805832 C330.54379552 89.50847141 334.12974196 89.50046832 337.71617126 89.48774719 C338.76140345 89.49512148 339.80663564 89.50249576 340.88354152 89.51009351 C347.56410286 89.46011625 352.09170166 88.68124901 357.11865234 83.92602539 C359.25989056 80.35729503 360.11655068 77.23198133 359.80615234 73.11352539 C358.53239776 68.68307465 357.08991907 65.92789723 353.14599609 63.42602539 C349.37046246 61.94230691 345.93526411 61.56182375 341.93115234 61.42602539 C341.24279297 61.39186523 340.55443359 61.35770508 339.84521484 61.32250977 C338.16606621 61.24088448 336.48614067 61.17550969 334.80615234 61.11352539 C336.98317559 57.10780261 339.29014828 53.41026115 341.99365234 49.73852539 C350.50647143 37.65287431 356.21426415 24.42924144 360.96582031 10.49609375 C362.19350031 7.01528925 363.50410545 3.56718329 364.80615234 0.11352539 C373.17741838 0.02069493 381.54846803 -0.05030511 389.92012215 -0.0937233 C393.80777337 -0.11456581 397.6950715 -0.14282142 401.58251953 -0.18823242 C405.33673429 -0.2318108 409.0906102 -0.2556368 412.84505844 -0.26598358 C414.2747722 -0.27335359 415.70446818 -0.28774574 417.13403702 -0.30939484 C419.14190716 -0.33858221 421.15012091 -0.34010981 423.15820312 -0.34057617 C424.29959747 -0.34945862 425.44099182 -0.35834106 426.61697388 -0.36749268 C431.64559657 0.39096546 434.72796122 2.94791337 438.11865234 6.61352539 C440.78704483 10.56669945 440.931716 13.90580749 440.94037342 18.61216354 C440.94706019 20.29918951 440.94706019 20.29918951 440.95388204 22.02029681 C440.95360549 23.87396235 440.95360549 23.87396235 440.95332336 25.76507568 C440.95700005 27.07775272 440.96067674 28.39042975 440.96446484 29.74288487 C440.97447737 33.38971087 440.97820042 37.0365204 440.98085415 40.68335819 C440.98475935 44.61531841 440.99433744 48.54726562 441.00306702 52.47921753 C441.02282388 61.97562777 441.032896 71.47203907 441.04179481 80.96846473 C441.04617841 85.44035466 441.05154498 89.9122434 441.05678368 94.38413239 C441.07379409 109.24885691 441.08828887 124.11358069 441.09553242 138.97831345 C441.09744231 142.83523306 441.09936264 146.69215267 441.10131836 150.54907227 C441.1018021 151.50768973 441.10228584 152.4663072 441.10278424 153.45397368 C441.11108686 168.98741479 441.13642852 184.52077894 441.16889904 200.05418643 C441.20196229 216.00108825 441.21998046 231.94795094 441.22317666 247.89488721 C441.22534228 256.8489263 441.23409873 265.80285313 441.25963783 274.75685883 C441.28133468 282.38135658 441.28940022 290.0057148 441.27967105 297.63023993 C441.27512357 301.51987973 441.2770384 305.40923156 441.2964325 309.29883194 C441.31728533 313.51743782 441.30708805 317.7354039 441.29389954 321.95404053 C441.31035341 323.79432174 441.31035341 323.79432174 441.32713968 325.67178035 C441.27892004 332.05046786 441.14398885 338.07204985 436.80615234 343.11352539 C432.34329045 346.75663751 428.87101125 347.69378872 423.24421692 347.61688995 C422.49958376 347.62270372 421.7549506 347.62851748 420.9877528 347.63450742 C418.49044769 347.64911534 415.99412424 347.63521904 413.49682617 347.62145996 C411.68925632 347.62606857 409.88169022 347.63242122 408.07413197 347.64036894 C403.10528061 347.65709084 398.13673596 347.64880286 393.1678834 347.63642406 C387.80992952 347.62738762 382.45202902 347.64133632 377.09408569 347.65234375 C366.59717549 347.67014857 356.10037956 347.66628023 345.60346484 347.65469319 C337.07390068 347.64566687 328.54436859 347.64443139 320.01480103 347.64878845 C318.19520661 347.64970785 318.19520661 347.64970785 316.3388527 347.65064582 C313.87469028 347.6519247 311.41052788 347.65322155 308.94636548 347.65453619 C285.82922109 347.66594774 262.7121401 347.65281925 239.59500611 347.63133472 C219.75096841 347.61346324 199.90702429 347.61656718 180.06298828 347.63500977 C157.02967506 347.6564063 133.99641744 347.66484905 110.96309566 347.65256071 C108.50789834 347.65128649 106.052701 347.65002901 103.59750366 347.64878845 C102.38943756 347.64817135 101.18137147 347.64755425 99.9366973 347.64691845 C91.41543642 347.6434619 82.89421075 347.64930046 74.37295532 347.65870667 C63.99116287 347.6699145 53.60949142 347.66691216 43.22771287 347.64558369 C37.92876286 347.63505696 32.63001474 347.63097914 27.33106613 347.6441803 C22.4827419 347.65607632 17.63480721 347.64958771 12.78651845 347.62827009 C11.03021359 347.62379218 9.27387599 347.62609684 7.51759207 347.63577324 C5.13395317 347.64790136 2.75165615 347.63549979 0.36808777 347.61688995 C-0.31713837 347.62625462 -1.0023645 347.63561928 -1.70835507 347.64526772 C-6.62504964 347.56831018 -9.4161101 346.19753058 -13.19384766 343.11352539 C-18.33145467 337.13806518 -17.75336016 329.40940721 -17.6950531 321.97422791 C-17.7005875 320.65742761 -17.70612189 319.34062731 -17.711824 317.98392397 C-17.72653872 314.34405681 -17.71642151 310.70462403 -17.70208728 307.06477106 C-17.69095866 303.13356771 -17.70292628 299.20242436 -17.71192932 295.27122498 C-17.72585056 287.57628971 -17.71831406 279.88151873 -17.70325374 272.18659132 C-17.68638055 263.22376273 -17.68960552 254.26097491 -17.69334782 245.29813535 C-17.69922427 229.30582008 -17.68506282 213.31358358 -17.66040039 197.32128906 C-17.63647624 181.80595955 -17.62939797 166.29073527 -17.63989258 150.77539062 C-17.65130331 133.87537525 -17.65323023 116.97540852 -17.63879448 100.07539374 C-17.63726866 98.27318387 -17.6357483 96.47097399 -17.63423347 94.66876411 C-17.63347566 93.78206549 -17.63271785 92.89536688 -17.63193707 91.9817986 C-17.62719576 85.73525866 -17.62904456 79.48874046 -17.63329887 73.24220085 C-17.63822681 65.62984538 -17.63223538 58.01758938 -17.61240458 50.40525668 C-17.60253698 46.52185013 -17.59742171 42.63859498 -17.60529709 38.75518036 C-17.61365993 34.54525657 -17.59876605 30.33573596 -17.58152771 26.12583923 C-17.58753776 24.89880073 -17.5935478 23.67176223 -17.59973997 22.40754074 C-17.54846427 15.53838842 -17.40257914 9.75498657 -12.65869141 4.37133789 C-7.94014544 0.87164907 -5.85778283 -0.01130846 0 0 Z M135.80615234 151.11352539 C124.27312172 164.42397579 119.61568606 178.67895467 120.80615234 196.11352539 C122.42568789 207.83307351 127.65261736 218.01565021 135.66381836 226.61694336 C136.13771531 227.12611235 136.61161226 227.63528133 137.09986973 228.15987968 C143.28766862 234.762413 149.68748555 241.1591731 156.08349609 247.55883789 C157.42589698 248.90446106 158.76822655 250.25015538 160.11048889 251.59591675 C162.89799354 254.38935396 165.68750033 257.18077365 168.47827148 259.97094727 C172.05315557 263.54572878 175.62105232 267.12740042 179.18732357 270.71077156 C181.94539311 273.4799401 184.70797578 276.24457159 187.4718647 279.00793076 C188.79037723 280.32762183 190.10727199 281.64893132 191.4224987 282.97189713 C193.2526283 284.81180584 195.08896213 286.64529307 196.92700195 288.47729492 C197.73510063 289.29382286 197.73510063 289.29382286 198.55952454 290.12684631 C202.77772792 294.30986492 205.71302799 296.39556395 211.68115234 296.48852539 C212.50357422 296.51688477 213.32599609 296.54524414 214.17333984 296.57446289 C220.51056439 295.46497847 225.15307534 290.06380401 229.52661133 285.68359375 C230.16973267 285.04718964 230.812854 284.41078552 231.47546387 283.75509644 C233.58969549 281.65978481 235.69637792 279.55708404 237.80224609 277.45336914 C239.27891292 275.98313591 240.75572703 274.51305058 242.23268127 273.04310608 C245.32527714 269.96246913 248.41372734 266.8777424 251.49975586 263.79052734 C255.4345399 259.85554055 259.38287585 255.93446855 263.33495998 252.01686764 C266.39010336 248.98408112 269.43599208 245.94212592 272.47944832 242.89761543 C273.93013543 241.44927253 275.38402987 240.00413416 276.84130669 238.5624218 C291.11736771 224.42459416 302.48489347 210.24262301 303.11865234 189.30102539 C302.78031052 174.60195261 297.43334368 160.9484721 287.22021484 150.24243164 C274.46230408 138.99152328 260.533317 133.99787273 243.53662109 134.66821289 C233.08077604 135.4270194 224.02733415 139.13989108 215.85693359 145.75805664 C213.80615234 147.11352539 213.80615234 147.11352539 209.80615234 147.11352539 C207.86865234 145.97680664 207.86865234 145.97680664 205.80615234 144.42602539 C183.68654644 128.97159875 154.9437618 132.72763873 135.80615234 151.11352539 Z " fill="#000000" transform="translate(44.19384765625,164.886474609375)"/>
<path d="M0 0 C3.42312122 2.91067792 6.73120503 5.91767991 10 9 C10.66515625 9.60070313 11.3303125 10.20140625 12.015625 10.8203125 C34.14353394 31.5989587 47.2280445 63.39263615 48.27734375 93.4609375 C48.97771999 127.46253624 39.77405866 159.16322311 17 185 C16.21109375 185.91007813 15.4221875 186.82015625 14.609375 187.7578125 C4.9970799 198.67508806 4.9970799 198.67508806 -0.17978954 199.51733112 C-1.98960544 199.52933442 -1.98960544 199.52933442 -3.83598328 199.5415802 C-4.84861251 199.55623189 -4.84861251 199.55623189 -5.88169891 199.57117957 C-8.13713278 199.5987763 -10.3916278 199.59790868 -12.6472168 199.59692383 C-14.26719038 199.61053424 -15.88715101 199.62576797 -17.50709534 199.64250183 C-21.90406941 199.68209415 -26.30074861 199.69559955 -30.69788337 199.70195985 C-33.44769352 199.70702844 -36.19742793 199.71754144 -38.94721413 199.72995567 C-48.54842896 199.77295135 -58.14942432 199.79417166 -67.75073242 199.79614258 C-76.68692843 199.7985746 -85.62196134 199.84952667 -94.55782956 199.92303449 C-102.23959903 199.98398438 -109.92098648 200.01005759 -117.60299617 200.00947779 C-122.18678531 200.00976047 -126.76946052 200.02406548 -131.35300255 200.07383156 C-135.66857767 200.11954103 -139.98206225 200.12164258 -144.29775047 200.09114265 C-145.8755127 200.08725235 -147.45340208 200.09854124 -149.03091812 200.12668228 C-156.85757275 200.25748214 -162.73367452 200.0429332 -168.8540802 194.6089325 C-170.27485996 193.10843726 -171.66350114 191.57603042 -173 190 C-173.86753906 189.06671875 -174.73507813 188.1334375 -175.62890625 187.171875 C-200.32052152 156.24500335 -211.85832602 122.12696427 -207.57421875 82.19140625 C-203.04614879 49.89394563 -185.17160277 19.12597138 -159.421875 -0.84765625 C-156.03389168 -3.37176203 -152.54353787 -5.69980875 -149 -8 C-148.07316406 -8.62261719 -147.14632812 -9.24523437 -146.19140625 -9.88671875 C-102.1147969 -37.70812465 -40.04447367 -32.74076464 0 0 Z M-90.53515625 7.46484375 C-94.56815838 12.27387545 -95.11514812 14.78200165 -95 21 C-95.73347656 21.10183594 -96.46695313 21.20367187 -97.22265625 21.30859375 C-104.95712599 23.23405246 -111.0026462 30.40680364 -115 37 C-119.91028123 46.39563428 -121.6322079 55.64998545 -118.875 66.0625 C-114.42506301 79.24673191 -105.4539671 85.01468241 -93.50756836 90.96020508 C-87.62892209 93.8039211 -81.61544717 96.28692174 -75.49633789 98.56616211 C-71.61329951 100.07075265 -68.94761462 101.21377905 -67 105 C-66.26741947 111.38391601 -67.25196618 114.79439748 -71 120 C-76.59103343 123.53497598 -84.21632586 123.57196523 -90.5625 122.375 C-94.0287236 121.48209088 -96.9690969 120.05053226 -100.125 118.375 C-104.34373508 116.18750773 -107.17654343 115.1067673 -112 116 C-116.32254007 117.89613282 -119.29306151 119.98377592 -122 123.875 C-123.65958536 129.06120424 -123.60802827 132.49314734 -121.5625 137.5625 C-117.01221901 144.6832906 -107.89686061 148.77737367 -100 151 C-97.30174787 151.13638184 -97.30174787 151.13638184 -95 151 C-94.97421875 151.59167969 -94.9484375 152.18335938 -94.921875 152.79296875 C-94.54597247 158.02997449 -94.03386383 161.29320621 -90 165 C-85.70013327 167.99990702 -82.30593505 168.48421046 -77.25 167.70703125 C-72.39188982 166.1804376 -69.04472663 162.89950296 -66.625 158.5 C-65.91138114 155.94566732 -65.91138114 155.94566732 -65.77734375 153.0234375 C-65 150 -65 150 -62.77734375 148.3828125 C-61.84019531 147.96773437 -60.90304687 147.55265625 -59.9375 147.125 C-49.7607133 142.03660665 -43.08525604 133.92852591 -38.96484375 123.33984375 C-35.43270216 111.9219907 -36.20102621 101.22484095 -41.18359375 90.4375 C-46.93921794 79.74149584 -56.05655022 74.42340377 -67 70 C-69.4529081 68.98917466 -71.90326854 67.97253946 -74.35180664 66.95117188 C-76.0486179 66.2449549 -77.74826166 65.54549764 -79.45092773 64.85351562 C-87.35255456 61.59111681 -87.35255456 61.59111681 -90 59 C-90.75609067 55.13553658 -90.29824245 53.48996974 -88.25 50.125 C-83.30041605 46.88873357 -78.74752508 47.0567039 -73 48 C-70.47273597 49.07927233 -68.27377341 50.3435801 -65.953125 51.80859375 C-63.23843335 53.46455566 -61.17769192 54 -58 54 C-52.81023802 52.51721086 -49.46008809 50.28132484 -46.10546875 46.02734375 C-44.11054224 42.36880361 -44.16161822 39.01540749 -45 35 C-47.89927291 28.83904506 -53.27953986 24.54009745 -59.51953125 21.95703125 C-61.66763125 21.23648747 -63.8096716 20.57800333 -66 20 C-66.061875 18.80375 -66.12375 17.6075 -66.1875 16.375 C-66.80293408 11.67607763 -68.45807102 9.24048822 -72 6 C-78.71347899 2.59181622 -84.78133076 1.97455225 -90.53515625 7.46484375 Z " fill="#000000" transform="translate(336,27)"/>
<path d="M0 0 C3.82756901 2.85893575 7.12082937 6.19780491 10.34985352 9.71191406 C13.83100199 13.46129868 16.56368084 15.48724252 21.65234375 16.1953125 C29.35629268 15.80505617 33.32681031 11.1397797 38.546875 5.90234375 C46.09727963 -1.19230205 51.82383637 -3.73865506 62.328125 -3.4375 C69.1490481 -2.71732972 73.72538187 -0.31811148 78.421875 4.65234375 C83.89595709 11.53622424 85.53048421 18.18328698 84.546875 26.90234375 C82.40403249 37.09706656 74.83053615 43.38864995 67.6875 50.34765625 C66.4139513 51.60999613 65.14173436 52.87368086 63.87078857 54.13864136 C60.54338787 57.443277 57.19836344 60.72948403 53.84918213 64.01202393 C50.4262625 67.37325465 47.02054201 70.75181624 43.61328125 74.12890625 C36.9410843 80.73700831 30.25011694 87.32574604 23.546875 93.90234375 C19.6748311 92.31582793 17.02460827 89.68913018 14.10742188 86.78515625 C13.3115139 86.00414299 13.3115139 86.00414299 12.49952698 85.20735168 C10.74928189 83.48626655 9.0068703 81.75753094 7.265625 80.02734375 C6.04781188 78.8210439 4.82999774 77.61474509 3.61218262 76.40844727 C1.05966642 73.8769298 -1.48816792 71.34079352 -4.03369141 68.80224609 C-7.28163233 65.56524611 -10.54768054 62.3471993 -13.81851959 59.13336182 C-16.34240584 56.64690666 -18.85259791 54.14695703 -21.35935974 51.64324951 C-22.55677391 50.45185342 -23.7591469 49.26541819 -24.96669006 48.08428955 C-32.89831226 40.31385417 -39.15944094 33.46575568 -39.953125 21.90234375 C-39.53880832 13.89222135 -36.95270017 7.89056406 -31.078125 2.40234375 C-22.48450415 -5.0069972 -9.76417349 -5.50431349 0 0 Z " fill="#000000" transform="translate(233.453125,332.09765625)"/>
</svg>
